<?xml version="1.0" encoding="iso-8859-1"?>
<!-- Uploaded to: SVG Repo, www.svgrepo.com, Generator: SVG Repo Mixer Tools -->
<!DOCTYPE svg PUBLIC "-//W3C//DTD SVG 1.1//EN" "http://www.w3.org/Graphics/SVG/1.1/DTD/svg11.dtd">
<svg fill="#000000" version="1.1" id="Capa_1" xmlns="http://www.w3.org/2000/svg" xmlns:xlink="http://www.w3.org/1999/xlink" 
	 width="800px" height="800px" viewBox="0 0 181.27 181.27"
	 xml:space="preserve">
<g>
	<g>
		<path d="M22.227,73.308c0.756-0.571,1.357-1.223,1.776-1.86c0.225,0.733,0.623,1.524,1.193,2.273
			c1.485,1.979,3.532,2.941,4.568,2.17c1.034-0.786,0.666-3.021-0.817-4.993c-0.572-0.758-1.223-1.356-1.867-1.77
			c0.733-0.23,1.524-0.635,2.28-1.207c1.973-1.483,2.94-3.524,2.164-4.562c-0.786-1.034-3.016-0.665-4.989,0.819
			c-0.758,0.572-1.363,1.222-1.781,1.866c-0.219-0.739-0.619-1.524-1.19-2.285c-1.487-1.973-3.528-2.935-4.566-2.158
			c-1.037,0.78-0.67,3.015,0.819,4.987c0.572,0.755,1.223,1.363,1.865,1.776c-0.738,0.224-1.529,0.629-2.284,1.193
			c-1.973,1.491-2.937,3.532-2.159,4.567C18.02,75.161,20.254,74.797,22.227,73.308z M22.938,66.834
			c1.059-0.801,2.562-0.582,3.362,0.466c0.796,1.053,0.583,2.561-0.469,3.362c-1.054,0.796-2.561,0.583-3.364-0.476
			C21.671,69.128,21.886,67.632,22.938,66.834z"/>
		<path d="M34.224,17.74c1.487,0,2.857-0.25,3.995-0.662c-0.416,1.138-0.661,2.508-0.661,3.994c0,3.877,1.655,7.026,3.687,7.026
			c2.04,0,3.695-3.149,3.695-7.026c0-1.485-0.249-2.856-0.663-3.994c1.138,0.412,2.51,0.656,3.995,0.656
			c3.878,0,7.027-1.65,7.027-3.688c0-2.035-3.149-3.688-7.027-3.688c-1.491,0-2.856,0.247-3.995,0.656
			c0.414-1.132,0.663-2.506,0.663-3.988c0-3.88-1.655-7.026-3.695-7.026c-2.032,0-3.687,3.146-3.687,7.026
			c0,1.482,0.246,2.856,0.661,3.988c-1.137-0.41-2.508-0.656-3.995-0.656c-3.875,0-7.025,1.653-7.025,3.693
			C27.199,16.085,30.342,17.74,34.224,17.74z M41.245,10.288c2.08,0,3.765,1.686,3.765,3.759c0,2.08-1.686,3.765-3.765,3.765
			c-2.074,0-3.759-1.686-3.759-3.765C37.486,11.973,39.167,10.288,41.245,10.288z"/>
		<path d="M62.566,22.586c0,1.239,1.91,2.235,4.269,2.235c0.903,0,1.742-0.145,2.433-0.396c-0.252,0.689-0.397,1.524-0.397,2.432
			c0,2.353,1.001,4.268,2.234,4.268c1.242,0,2.247-1.915,2.247-4.268c0-0.903-0.15-1.743-0.402-2.432
			c0.687,0.251,1.525,0.396,2.431,0.396c2.355,0,4.27-1.001,4.27-2.241c0-1.24-1.915-2.235-4.27-2.235
			c-0.906,0-1.744,0.145-2.431,0.391c0.252-0.684,0.402-1.518,0.402-2.427c0-2.358-1.009-4.268-2.247-4.268
			c-1.239,0-2.234,1.91-2.234,4.268c0,0.903,0.145,1.743,0.397,2.427c-0.69-0.246-1.524-0.391-2.433-0.391
			C64.476,20.345,62.566,21.346,62.566,22.586z M71.105,20.301c1.268,0,2.286,1.023,2.286,2.279c0,1.267-1.024,2.288-2.286,2.288
			c-1.26,0-2.281-1.026-2.281-2.288C68.818,21.324,69.845,20.301,71.105,20.301z"/>
		<path d="M92.756,102.776c-0.852,0-1.641,0.142-2.295,0.371c0.24-0.646,0.379-1.434,0.379-2.288c0-2.232-0.951-4.049-2.127-4.049
			c-1.172,0-2.127,1.812-2.127,4.049c0,0.854,0.143,1.643,0.383,2.288c-0.656-0.229-1.448-0.371-2.297-0.371
			c-2.23,0-4.048,0.953-4.048,2.128c0,1.17,1.812,2.117,4.048,2.117c0.85,0,1.641-0.142,2.297-0.372
			c-0.24,0.646-0.383,1.445-0.383,2.299c0,2.228,0.955,4.04,2.127,4.04c1.176,0,2.127-1.808,2.127-4.04
			c0-0.854-0.139-1.652-0.379-2.299c0.654,0.23,1.443,0.372,2.295,0.372c2.229,0,4.046-0.947,4.046-2.123
			C96.802,103.729,94.986,102.776,92.756,102.776z M88.713,107.065c-1.197,0-2.164-0.969-2.164-2.167
			c0-1.192,0.967-2.162,2.164-2.162c1.198,0,2.167,0.97,2.167,2.162C90.879,106.096,89.911,107.065,88.713,107.065z"/>
		<path d="M152.025,74.86c-1.056,0-2.027,0.178-2.845,0.47c0.295-0.813,0.473-1.781,0.473-2.842l-0.019-0.173l3.464-0.845
			c1.504-0.364,2.424-1.882,2.058-3.385c-0.372-1.501-1.899-2.432-3.388-2.057l-13.636,3.33c1.074-1.229,1.832-3.368,1.832-5.929
			c0-1.485-0.249-2.858-0.659-3.995c1.136,0.414,2.504,0.654,3.992,0.654c3.875,0,7.026-1.646,7.026-3.685
			c0-2.036-3.151-3.688-7.026-3.688c-1.493,0-2.856,0.247-3.992,0.656c0.41-1.132,0.659-2.506,0.659-3.988
			c0-3.88-1.657-7.029-3.693-7.029c-2.035,0-3.688,3.149-3.688,7.029c0,1.482,0.246,2.856,0.662,3.988
			c-1.139-0.409-2.512-0.656-3.994-0.656c-3.88,0-7.026,1.653-7.026,3.693c0,2.033,3.146,3.686,7.026,3.686
			c1.482,0,2.855-0.246,3.994-0.66c-0.416,1.136-0.662,2.509-0.662,3.995c0,3.188,1.138,5.771,2.665,6.636L101.108,78.4
			l-0.946,0.427l-2.599,1.819c-0.233-1.332-0.818-2.845-1.823-4.301c-0.842-1.229-1.83-2.213-2.814-2.914
			c1.171-0.309,2.443-0.881,3.658-1.725c3.187-2.213,4.832-5.358,3.676-7.038c-1.154-1.677-4.687-1.245-7.872,0.963
			c-1.22,0.84-2.213,1.825-2.908,2.812c-0.315-1.171-0.885-2.443-1.737-3.661c-2.208-3.188-5.353-4.834-7.032-3.674
			c-1.674,1.154-1.246,4.684,0.962,7.871c0.84,1.223,1.828,2.217,2.818,2.917c-1.177,0.306-2.449,0.878-3.664,1.729
			c-3.187,2.208-4.834,5.352-3.682,7.026c1.16,1.684,4.692,1.251,7.879-0.958c1.219-0.84,2.213-1.825,2.914-2.813
			c0.308,1.171,0.886,2.438,1.732,3.656c1.018,1.472,2.234,2.571,3.417,3.258l-34.321,24.146l-0.847-0.263l-6.046-21.831
			c0.791-0.208,1.632-0.583,2.449-1.198c0.756-0.572,1.358-1.223,1.776-1.86c0.225,0.733,0.624,1.524,1.194,2.273
			c1.485,1.978,3.532,2.944,4.568,2.169c1.034-0.785,0.665-3.019-0.817-4.992c-0.572-0.756-1.223-1.358-1.866-1.771
			c0.733-0.229,1.523-0.632,2.279-1.206c1.973-1.483,2.941-3.524,2.165-4.559c-0.787-1.037-3.016-0.667-4.989,0.815
			c-0.757,0.572-1.362,1.223-1.781,1.867c-0.218-0.739-0.619-1.524-1.19-2.285c-1.487-1.973-3.528-2.935-4.565-2.159
			c-1.038,0.78-0.671,3.016,0.818,4.988c0.572,0.757,1.223,1.362,1.865,1.775c-0.738,0.226-1.53,0.63-2.284,1.196l-0.787,0.734
			l-9.569-34.567l5.944-8.08c1.283,0.917,3.245,1.551,5.577,1.551c1.482,0,2.855-0.247,3.994-0.662
			c-0.416,1.138-0.663,2.512-0.663,3.995c0,3.88,1.653,7.029,3.688,7.029c2.038,0,3.691-3.149,3.691-7.029
			c0-1.483-0.245-2.856-0.659-3.995c1.137,0.416,2.508,0.657,3.995,0.657c3.876,0,7.025-1.647,7.025-3.688
			c0-2.033-3.149-3.686-7.025-3.686c-1.491,0-2.857,0.247-3.995,0.654c0.414-1.13,0.659-2.503,0.659-3.988
			c0-3.878-1.653-7.027-3.691-7.027l-0.969,0.37l7.497-10.191c0.919-1.245,0.648-2.999-0.593-3.913
			c-1.234-0.919-2.993-0.654-3.913,0.593L35.828,44.843c-0.511,0.69-0.672,1.573-0.443,2.408l10.4,37.57l-0.331-0.033
			c-1.492,0-2.857,0.246-3.995,0.656c0.413-1.132,0.659-2.505,0.659-3.992c0-3.876-1.651-7.026-3.691-7.026
			c-2.036,0-3.687,3.149-3.687,7.026c0,1.487,0.245,2.859,0.661,3.992c-1.137-0.41-2.512-0.656-3.995-0.656
			c-3.88,0-7.029,1.653-7.029,3.693c0,2.036,3.149,3.688,7.029,3.688c1.483,0,2.857-0.249,3.995-0.667
			c-0.416,1.138-0.661,2.518-0.661,4c0,3.88,1.651,7.026,3.687,7.026c2.04,0,3.691-3.146,3.691-7.026c0-1.482-0.246-2.862-0.659-4
			c1.138,0.418,2.51,0.657,3.995,0.657c0.817,0,1.562-0.109,2.292-0.239l4.78,17.248l-0.948,1.116l-34.461,62.685
			c-1.497,2.711-0.503,6.124,2.213,7.606c0.854,0.471,1.776,0.694,2.689,0.694c1.984,0,3.896-1.056,4.914-2.905l22.986-41.806
			c0.839,0.196,1.77,0.302,2.746,0.302c1.483,0,2.857-0.247,3.995-0.663c-0.416,1.139-0.661,2.512-0.661,3.994
			c0,3.88,1.652,7.026,3.687,7.026c2.04,0,3.695-3.146,3.695-7.026c0-1.482-0.25-2.855-0.663-3.994
			c1.139,0.416,2.51,0.657,3.995,0.657c3.877,0,7.025-1.647,7.025-3.688l-0.498-1.292c0.375,0.679,0.882,1.106,1.445,1.106
			c1.176,0,2.131-1.807,2.131-4.039c0-0.854-0.143-1.647-0.383-2.298c0.657,0.235,1.448,0.379,2.298,0.379
			c2.229,0,4.047-0.948,4.047-2.124c0-1.172-1.811-2.129-4.047-2.129c-0.85,0-1.642,0.142-2.298,0.377
			c0.241-0.651,0.383-1.438,0.383-2.292c0-2.228-0.955-4.044-2.131-4.044c-1.171,0-2.123,1.812-2.123,4.044
			c0,0.854,0.139,1.641,0.379,2.292c-0.654-0.235-1.443-0.377-2.295-0.377c-2.23,0-4.046,0.957-4.046,2.134
			c0,1.171,1.812,2.119,4.046,2.119c0.852,0,1.642-0.144,2.295-0.379c-0.241,0.65-0.379,1.444-0.379,2.298
			c0,1.073,0.229,2.041,0.588,2.764c-1.081-1.308-3.552-2.227-6.438-2.227c-1.492,0-2.856,0.252-3.995,0.655
			c0.413-1.127,0.663-2.505,0.663-3.988c0-3.88-1.655-7.026-3.695-7.026l-0.229,0.093l1.944-3.534l0.21-0.668l0.95,0.099
			c0.852,0,1.642-0.142,2.295-0.378c-0.241,0.651-0.38,1.45-0.38,2.301c0,2.227,0.952,4.042,2.124,4.042
			c1.176,0,2.129-1.806,2.129-4.042c0-0.851-0.14-1.649-0.38-2.301c0.656,0.236,1.445,0.378,2.297,0.378
			c2.229,0,4.043-0.947,4.043-2.121c0-1.173-1.807-2.125-4.043-2.125c-0.853,0-1.642,0.137-2.297,0.371
			c0.241-0.646,0.38-1.438,0.38-2.286l-0.119-1.062L99.974,85.82c-0.622,0.706-1.065,1.948-1.065,3.428
			c0,0.854,0.142,1.641,0.38,2.293c-0.651-0.236-1.443-0.378-2.298-0.378c-2.229,0-4.043,0.952-4.043,2.134
			c0,1.172,1.809,2.112,4.043,2.112c0.854,0,1.646-0.137,2.298-0.371c-0.238,0.645-0.38,1.443-0.38,2.298
			c0,2.227,0.952,4.038,2.123,4.038c1.177,0,2.129-1.806,2.129-4.038c0-0.854-0.143-1.653-0.383-2.298
			c0.656,0.234,1.444,0.371,2.298,0.371c2.232,0,4.044-0.94,4.044-2.124c0-1.17-1.806-2.122-4.044-2.122
			c-0.854,0-1.642,0.142-2.298,0.378c0.24-0.652,0.383-1.439,0.383-2.293c0-2.229-0.952-4.043-2.129-4.043l-0.405,0.15l2.339-1.642
			l41.612-10.158c0.083,0.61,0.115,1.27,0.302,1.775c-0.815-0.292-1.788-0.47-2.852-0.47c-2.756,0-5.006,1.182-5.006,2.631
			c0,1.454,2.242,2.635,5.006,2.635c1.056,0,2.036-0.181,2.852-0.476c-0.302,0.818-0.471,1.787-0.471,2.846
			c0,2.763,1.177,5.009,2.628,5.009c1.454,0,2.63-2.241,2.63-5.009c0-1.053-0.174-2.028-0.468-2.846
			c0.813,0.295,1.789,0.471,2.844,0.471c2.765,0,5.006-1.176,5.006-2.63C157.048,76.042,154.789,74.86,152.025,74.86z
			 M132.525,56.403c0-2.075,1.684-3.763,3.76-3.763c2.077,0,3.763,1.688,3.763,3.763c0,2.076-1.686,3.765-3.763,3.765
			C134.203,60.167,132.525,58.479,132.525,56.403z M90.856,75.761c-1.714,1.184-4.056,0.757-5.239-0.959
			c-1.181-1.707-0.754-4.049,0.958-5.231c1.711-1.185,4.052-0.758,5.234,0.952C92.992,72.236,92.567,74.578,90.856,75.761z
			 M55.035,78.17c1.06-0.802,2.561-0.583,3.362,0.465c0.796,1.053,0.583,2.561-0.47,3.363c-1.053,0.796-2.562,0.582-3.362-0.477
			C53.774,80.468,53.986,78.966,55.035,78.17z M63.446,36.834c0,2.08-1.686,3.765-3.766,3.765c-2.073,0-3.758-1.686-3.758-3.765
			c0-2.074,1.685-3.759,3.758-3.759C61.765,33.081,63.446,34.761,63.446,36.834z M56.66,33.804
			c-1.137-0.409-2.512-0.654-3.995-0.654l-1.401,0.145l5.444-7.398c-0.413,1.132-0.71,2.438-0.71,3.917
			C55.999,31.294,56.239,32.673,56.66,33.804z M38.433,92.235c-2.075,0-3.759-1.685-3.759-3.767c0-2.071,1.684-3.759,3.759-3.759
			c2.079,0,3.764,1.688,3.764,3.759C42.192,90.55,40.512,92.235,38.433,92.235z M72.523,124.899c0-1.199,0.969-2.162,2.162-2.162
			c1.202,0,2.169,0.963,2.169,2.162s-0.967,2.166-2.169,2.166C73.487,127.065,72.523,126.098,72.523,124.899z M103.19,93.286
			c0,1.193-0.971,2.168-2.167,2.168c-1.195,0-2.164-0.975-2.164-2.168c0-1.197,0.969-2.166,2.164-2.166
			C102.219,91.12,103.19,92.088,103.19,93.286z M63.446,133.167c0,2.079-1.686,3.765-3.766,3.765c-2.073,0-3.758-1.686-3.758-3.765
			c0-2.074,1.685-3.759,3.758-3.759C61.765,129.408,63.446,131.092,63.446,133.167z M56.66,130.134
			c-0.84-0.306-1.844-0.476-2.897-0.569l2.315-4.223l-0.086,0.804C55.992,127.629,56.239,129.007,56.66,130.134z M68.764,112.974
			c0,1.204-0.971,2.173-2.168,2.173c-1.193,0-2.162-0.969-2.162-2.173c0-1.191,0.968-2.156,2.162-2.156
			C67.793,110.818,68.764,111.783,68.764,112.974z M64.851,111.234l-0.817-0.131l0.717-0.501L64.851,111.234z M147.019,80.171
			c-1.483,0-2.682-1.205-2.682-2.685c0-1.478,1.198-2.685,2.682-2.685c1.484,0,2.681,1.207,2.681,2.685
			C149.7,78.966,148.503,80.171,147.019,80.171z"/>
		<path d="M159.85,39.721c-1.061,0-2.035,0.179-2.845,0.471c0.295-0.812,0.472-1.781,0.472-2.84c0-2.764-1.176-5.01-2.639-5.01
			c-1.45,0-2.627,2.241-2.627,5.01c0,1.051,0.177,2.027,0.471,2.84c-0.808-0.292-1.789-0.471-2.844-0.471
			c-2.765,0-5.014,1.183-5.014,2.632c0,1.453,2.245,2.635,5.014,2.635c1.051,0,2.036-0.181,2.844-0.476
			c-0.294,0.818-0.471,1.786-0.471,2.845c0,2.764,1.177,5.01,2.627,5.01c1.463,0,2.639-2.241,2.639-5.01
			c0-1.053-0.177-2.027-0.472-2.845c0.81,0.295,1.784,0.47,2.845,0.47c2.764,0,5.001-1.177,5.001-2.629
			C164.851,40.903,162.614,39.721,159.85,39.721z M154.838,45.032c-1.478,0-2.674-1.204-2.674-2.684
			c0-1.478,1.196-2.685,2.674-2.685c1.49,0,2.687,1.207,2.687,2.685C157.525,43.828,156.329,45.032,154.838,45.032z"/>
	</g>
</g>
</svg>