<?xml version="1.0" standalone="no"?>
<!DOCTYPE svg PUBLIC "-//W3C//DTD SVG 20010904//EN"
 "http://www.w3.org/TR/2001/REC-SVG-20010904/DTD/svg10.dtd">
<svg version="1.0" xmlns="http://www.w3.org/2000/svg"
 width="499.000000pt" height="499.000000pt" viewBox="0 0 499.000000 499.000000"
 preserveAspectRatio="xMidYMid meet">
<metadata>
Created by potrace 1.16, written by Peter Selinger 2001-2019
</metadata>
<g transform="translate(0.000000,499.000000) scale(0.100000,-0.100000)"
fill="#000000" stroke="none">
<path d="M2471 4476 c-25 -39 -27 -79 -6 -96 13 -11 14 -35 10 -149 -6 -172
-26 -383 -36 -395 -9 -10 -19 12 -44 94 -9 30 -39 100 -65 155 -27 55 -58 123
-70 150 -40 93 -85 177 -108 202 -18 20 -30 24 -64 21 -86 -6 -89 -91 -5 -138
52 -29 137 -109 182 -171 99 -134 162 -339 148 -485 -10 -107 -37 -83 -86 74
-39 123 -81 204 -131 250 -74 68 -138 67 -151 -2 -19 -96 94 -254 226 -319
106 -51 122 -89 114 -265 -3 -70 -11 -178 -17 -241 l-12 -114 -23 29 c-12 16
-23 32 -23 36 0 4 -15 31 -32 60 -31 50 -33 58 -33 153 0 94 -2 104 -36 176
-44 91 -115 166 -196 206 -68 33 -142 38 -169 11 -16 -16 -16 -21 1 -85 29
-108 61 -166 132 -236 50 -50 84 -74 148 -103 78 -35 85 -41 120 -98 19 -34
50 -90 68 -126 30 -60 32 -71 32 -170 0 -131 -15 -340 -24 -340 -4 0 -22 32
-40 70 -19 39 -51 94 -73 122 -36 49 -38 55 -31 98 19 111 -8 171 -110 247
-71 52 -230 133 -262 133 -12 0 -32 -11 -45 -25 -20 -21 -24 -36 -24 -78 2
-117 118 -219 323 -282 84 -26 134 -82 207 -229 l54 -110 -1 -96 c-1 -137 -23
-487 -32 -496 -4 -4 -14 10 -22 32 -30 79 -72 148 -150 252 l-80 106 -1 87 c0
105 -22 156 -98 232 -69 69 -153 107 -234 107 -129 0 -164 -58 -108 -183 42
-94 114 -147 223 -162 26 -4 80 -22 118 -40 66 -30 75 -38 157 -146 99 -130
150 -225 172 -319 20 -83 22 -330 4 -330 -24 1 -97 123 -119 200 -63 220 -99
288 -191 363 -63 51 -109 74 -176 88 -83 17 -186 -2 -238 -44 -35 -29 -36 -33
-32 -81 3 -42 15 -68 63 -141 33 -50 80 -111 106 -136 49 -50 89 -64 209 -76
52 -5 218 -46 250 -62 17 -9 93 -103 115 -143 12 -22 14 -72 8 -316 -4 -203
-9 -289 -17 -286 -22 9 -116 190 -186 359 -93 224 -157 305 -317 397 -96 55
-159 66 -191 35 -15 -16 -14 -22 22 -95 53 -108 141 -258 188 -318 57 -76 178
-156 306 -204 51 -18 69 -31 88 -61 13 -21 24 -41 24 -45 0 -3 16 -32 35 -63
43 -69 51 -94 75 -242 19 -116 27 -148 73 -309 25 -87 91 -255 109 -277 27
-33 24 -6 -7 60 -93 202 -185 582 -185 762 0 49 7 70 46 144 87 162 115 209
128 221 8 6 61 15 118 20 215 19 306 39 412 93 111 55 231 160 271 237 36 70
15 155 -44 180 -31 13 -184 10 -213 -4 -38 -17 -16 14 35 50 121 86 214 196
279 329 55 114 31 183 -68 191 l-49 4 41 -13 c68 -20 85 -37 86 -82 1 -80
-102 -245 -153 -245 -23 0 -25 -17 -2 -22 12 -2 4 -16 -34 -54 -61 -65 -164
-131 -266 -173 -68 -28 -87 -31 -135 -27 -48 5 -53 4 -34 -6 31 -16 23 -31
-24 -45 -47 -14 -164 -17 -164 -4 0 16 56 50 96 60 33 8 35 9 12 10 -39 1 -35
13 20 56 l47 37 77 -6 c45 -3 80 -1 83 4 4 6 -15 10 -47 10 -88 0 -88 11 4 68
109 66 131 74 208 74 57 0 61 2 38 11 -16 6 -28 14 -28 18 0 3 17 18 38 31 51
35 109 88 96 88 -6 0 -37 -21 -70 -46 -64 -50 -124 -84 -149 -84 -12 0 -14 6
-9 28 4 15 11 31 15 36 5 6 8 21 8 35 -1 21 -2 22 -6 6 -15 -71 -61 -126 -148
-179 -42 -25 -78 -46 -80 -46 -3 0 -6 21 -6 48 l-2 47 -6 -40 c-10 -55 -35
-99 -71 -125 l-31 -22 6 63 c11 111 24 159 56 205 31 46 56 54 51 16 -2 -11 2
-23 8 -27 6 -4 10 13 10 49 0 54 1 57 43 87 51 38 164 92 177 84 5 -3 7 -36 5
-73 -3 -46 -2 -59 4 -42 5 14 9 42 10 63 1 21 5 47 11 57 10 19 98 50 143 50
14 0 29 5 32 10 4 7 -2 9 -19 4 -50 -12 -46 8 11 50 120 89 289 292 300 360 5
31 2 37 -28 55 -61 37 -313 24 -453 -23 -210 -72 -443 -251 -513 -396 -18 -36
-39 -94 -48 -129 -29 -115 -66 -221 -76 -221 -6 0 -8 33 -5 88 3 48 8 134 11
192 8 137 18 175 77 296 86 176 135 214 278 214 42 0 93 3 111 8 26 5 13 8
-61 12 l-95 5 45 21 c25 12 83 27 130 33 136 20 166 30 75 24 -44 -3 -108 -12
-143 -20 -35 -8 -66 -12 -69 -9 -8 7 -18 0 112 81 105 66 177 105 220 120 13
5 16 9 7 12 -7 3 -27 -1 -45 -8 -37 -15 -274 -161 -355 -220 -30 -21 -57 -37
-60 -35 -9 10 67 106 153 192 138 140 280 213 387 201 69 -9 108 -34 124 -80
12 -34 11 -44 -7 -91 -23 -64 -45 -85 -107 -108 -40 -14 -43 -17 -19 -17 15
-1 27 -5 27 -10 0 -12 -86 -53 -130 -62 l-35 -7 38 -1 c77 -2 175 64 222 150
39 72 42 155 6 193 -25 27 -98 56 -140 56 -59 0 -187 -53 -262 -108 -149 -110
-327 -336 -424 -539 -40 -84 -45 -76 -39 59 6 127 20 213 55 333 45 152 48
156 93 144 24 -7 50 -5 87 5 73 20 122 37 133 47 6 5 16 9 23 9 32 0 205 91
246 130 83 76 109 164 63 217 -22 25 -29 27 -86 26 -125 -4 -273 -73 -391
-185 -85 -80 -107 -123 -164 -323 -24 -87 -29 -95 -33 -58 -5 49 26 414 39
453 23 68 134 159 179 147 46 -12 191 46 246 98 27 25 34 40 34 69 0 47 -16
53 -88 31 -91 -28 -174 -83 -209 -137 -4 -7 -43 -45 -87 -83 -74 -66 -78 -68
-73 -40 4 17 15 92 26 167 22 153 41 207 92 257 60 60 163 121 216 128 54 7
93 23 113 48 13 15 11 20 -9 36 -48 39 -123 14 -150 -48 -7 -16 -37 -43 -68
-63 -31 -19 -77 -54 -103 -77 -26 -24 -51 -43 -54 -43 -6 0 -2 95 10 260 4 58
11 83 31 112 20 30 24 45 20 74 -12 70 -44 83 -76 30z m-317 -476 c35 -21 84
-84 109 -140 32 -70 65 -180 56 -186 -15 -9 -110 48 -159 96 -128 125 -133
309 -6 230z m712 -165 c9 -24 -22 -63 -80 -99 -74 -48 -206 -84 -206 -57 0 17
88 106 121 122 109 52 155 61 165 34z m-873 -140 c69 -32 123 -79 158 -134 25
-39 29 -55 29 -118 0 -40 -3 -73 -7 -73 -5 0 -23 23 -42 51 -41 60 -136 149
-159 149 -11 0 -5 -9 18 -27 19 -15 50 -43 68 -61 38 -38 106 -141 99 -149 -3
-2 -27 11 -54 30 -26 19 -74 49 -106 67 -76 43 -113 105 -141 239 -12 56 51
67 137 26z m1025 -91 c12 -4 29 -19 37 -34 21 -41 -4 -106 -64 -167 -89 -91
-396 -217 -477 -197 -32 8 -26 25 17 45 216 105 271 133 307 156 23 15 42 31
42 35 0 7 -81 -34 -105 -53 -28 -22 -204 -107 -235 -114 l-35 -7 30 32 c17 18
65 57 108 87 43 31 76 57 74 60 -7 6 -136 -78 -180 -117 -51 -44 -48 -16 3 43
48 55 147 134 210 169 91 50 209 77 268 62z m-1132 -423 c198 -93 309 -212
280 -296 -6 -16 -12 -32 -14 -35 -6 -9 -22 25 -22 48 0 28 -48 132 -61 132
-12 0 -13 2 16 -54 14 -27 25 -61 25 -75 l0 -25 -36 35 c-20 18 -49 51 -64 72
-16 20 -30 32 -32 26 -3 -8 -19 -3 -49 14 -50 29 -59 32 -59 17 0 -5 4 -10 10
-10 30 0 211 -152 197 -166 -10 -10 -148 47 -207 85 -78 52 -114 107 -114 177
-1 44 3 59 18 70 28 20 43 18 112 -15z m1493 -344 c72 -19 73 -32 6 -133 -117
-175 -314 -338 -425 -351 -34 -4 -54 -12 -61 -24 -6 -13 -26 -20 -69 -25 -53
-6 -58 -8 -43 -20 17 -12 15 -15 -17 -41 -86 -67 -135 -138 -216 -310 -30 -62
-54 -117 -54 -121 0 -23 -58 -125 -104 -182 -29 -36 -60 -78 -70 -93 -28 -45
-37 -23 -31 71 3 48 9 146 14 217 8 111 15 147 49 252 23 67 48 150 58 183
l17 62 61 -7 c34 -4 71 -11 84 -16 13 -5 51 -9 85 -8 l62 1 -102 18 c-122 22
-143 28 -143 42 0 7 26 8 78 4 213 -17 224 -16 100 6 -65 12 -118 25 -118 28
0 9 74 61 135 95 104 59 101 58 204 52 94 -5 95 -5 37 6 -33 7 -61 17 -63 23
-5 14 92 56 182 78 173 43 215 56 215 66 0 9 -14 5 -160 -35 -147 -41 -160
-44 -166 -33 -4 5 -18 -1 -33 -15 -14 -13 -69 -46 -121 -73 -107 -54 -145 -78
-243 -148 -37 -26 -71 -45 -75 -42 -11 11 45 108 91 156 138 147 324 257 508
300 30 7 68 16 84 21 46 11 194 9 244 -4z m-1591 -143 c24 -16 92 -148 92
-178 0 -23 -10 -20 -80 25 -34 22 -65 38 -68 35 -3 -4 -3 -7 -1 -9 2 -2 35
-25 72 -51 103 -72 187 -145 187 -162 0 -12 -3 -13 -22 -1 -24 14 -53 23 -172
53 -89 23 -143 63 -177 134 -43 87 -45 115 -14 144 15 14 36 27 48 30 36 7
109 -3 135 -20z m47 -529 c34 -17 42 -28 57 -75 l18 -55 -4 43 c-3 28 0 42 8
42 22 0 95 -85 102 -118 4 -21 12 -32 24 -32 24 0 34 -24 79 -185 16 -59 17
-74 6 -73 -48 3 -78 63 -86 168 l-6 85 -1 -67 c-2 -51 -6 -68 -16 -68 -23 0
-75 67 -81 107 -4 21 -11 52 -15 68 -7 27 -8 25 -9 -17 -1 -27 -4 -48 -9 -48
-4 0 -19 11 -33 24 -38 36 -117 76 -147 76 -21 0 -10 -9 48 -37 59 -28 94 -56
163 -125 48 -49 87 -93 87 -99 0 -11 -13 -12 -25 0 -15 14 -119 41 -157 41
-45 0 -131 24 -171 47 -41 25 -101 103 -128 171 -19 47 -20 56 -8 79 8 15 36
36 64 50 64 29 178 29 240 -2z m-96 -346 c25 -5 78 -14 118 -19 97 -13 277
-100 205 -100 -10 0 -22 4 -27 8 -12 11 -100 29 -180 38 -69 7 -132 32 -159
63 -22 24 -19 25 43 10z m1461 -27 c70 -35 77 -98 19 -186 -40 -59 -147 -148
-226 -187 l-62 -31 -181 7 -182 8 44 44 c54 55 183 142 271 184 72 33 96 53
48 39 -30 -8 -146 -69 -191 -100 -52 -35 -56 -36 -36 -5 10 17 28 40 39 52 11
13 18 25 15 28 -6 6 -50 -43 -171 -188 -49 -59 -93 -107 -98 -107 -15 0 -10
31 15 101 35 96 53 127 105 178 117 117 482 218 591 163z m-1513 -108 c52 -24
150 -94 197 -141 58 -57 88 -107 136 -223 24 -58 47 -109 52 -114 4 -6 8 -16
8 -23 0 -33 -22 -4 -81 107 -35 66 -67 120 -71 120 -8 0 6 -35 35 -89 10 -18
15 -36 12 -39 -3 -3 -55 43 -115 103 -60 60 -112 107 -115 104 -2 -3 45 -56
106 -118 61 -62 108 -115 105 -118 -3 -4 -22 1 -41 10 -44 21 -51 21 -35 2 7
-8 17 -15 22 -15 16 0 140 -85 167 -114 14 -14 22 -29 19 -32 -9 -8 -164 71
-222 114 -60 44 -110 106 -181 227 -98 166 -128 234 -114 252 15 18 59 13 116
-13z m936 -1 c4 -3 -14 -28 -39 -55 -52 -56 -92 -139 -119 -248 -10 -41 -33
-97 -50 -125 -17 -27 -51 -86 -74 -130 -24 -44 -47 -84 -52 -89 -13 -14 -11
288 2 359 6 33 20 78 31 100 27 54 96 143 122 157 46 25 165 46 179 31z m142
-304 c80 -12 95 -24 43 -32 -205 -33 -308 -45 -314 -35 -7 11 41 50 80 65 40
15 97 16 191 2z"/>
</g>
</svg>
