<?xml version="1.0" encoding="UTF-8"?>
<svg version="1.1" xmlns="http://www.w3.org/2000/svg" width="500" height="500">
<path d="M0 0 C165 0 330 0 500 0 C500 165 500 330 500 500 C335 500 170 500 0 500 C0 335 0 170 0 0 Z M323 21 C324 25 324 25 324 25 Z M300 28 C300.99 28.495 300.99 28.495 302 29 C302.625 31.0625 302.625 31.0625 303 33 C303 31.35 303 29.7 303 28 C302.01 28 301.02 28 300 28 Z M307 28 C307 28.66 307 29.32 307 30 C307.66 29.67 308.32 29.34 309 29 C308.34 28.67 307.68 28.34 307 28 Z M286 31 C286.33 31.66 286.66 32.32 287 33 C287.33 32.34 287.66 31.68 288 31 C287.34 31 286.68 31 286 31 Z M316 31 C315.67 31.66 315.34 32.32 315 33 C316.32 32.34 317.64 31.68 319 31 C318.01 31 317.02 31 316 31 Z M293 32 C293.66 32.66 294.32 33.32 295 34 C295 33.34 295 32.68 295 32 C294.34 32 293.68 32 293 32 Z M312 32 C311.67 32.66 311.34 33.32 311 34 C311.66 34 312.32 34 313 34 C312.67 33.34 312.34 32.68 312 32 Z M291 34 C292 37 292 37 292 37 Z M301 34 C302 37 302 37 302 37 Z M324 34 C324 37.96 324 41.92 324 46 C324.33 46 324.66 46 325 46 C325 42.04 325 38.08 325 34 C324.67 34 324.34 34 324 34 Z M320 36 C321 38 321 38 321 38 Z M298 38 C298.66 38.66 299.32 39.32 300 40 C300 39.34 300 38.68 300 38 C299.34 38 298.68 38 298 38 Z M306 38 C310 39 310 39 310 39 Z M284 40 C284.66 41.32 285.32 42.64 286 44 C286 42.68 286 41.36 286 40 C285.34 40 284.68 40 284 40 Z M290 40 C290 42.64 290 45.28 290 48 C290.66 47.67 291.32 47.34 292 47 C291.67 44.69 291.34 42.38 291 40 C290.67 40 290.34 40 290 40 Z M293 41 C294 43 294 43 294 43 Z M303 41 C302.67 41.66 302.34 42.32 302 43 C302.99 42.67 303.98 42.34 305 42 C304.34 41.67 303.68 41.34 303 41 Z M275 43 C276 45 276 45 276 45 Z M282 43 C283 46 283 46 283 46 Z M319 45 C320 49 320 49 320 49 Z M220 49 C221 51 221 51 221 51 Z M225 50 C225 50.66 225 51.32 225 52 C224.01 52.495 224.01 52.495 223 53 C223.33 53.66 223.66 54.32 224 55 C224.66 55 225.32 55 226 55 C226 53.35 226 51.7 226 50 C225.67 50 225.34 50 225 50 Z M219 51 C220 53 220 53 220 53 Z M323 52 C323 53.65 323 55.3 323 57 C323.33 57 323.66 57 324 57 C324 55.35 324 53.7 324 52 C323.67 52 323.34 52 323 52 Z M291 53 C291 53.66 291 54.32 291 55 C292.98 55 294.96 55 297 55 C297 54.67 297 54.34 297 54 C294.03 53.505 294.03 53.505 291 53 Z M218 54 C219 56 219 56 219 56 Z M269 54 C270 56 270 56 270 56 Z M275 54 C275.33 56.64 275.66 59.28 276 62 C276.33 62 276.66 62 277 62 C277 59.36 277 56.72 277 54 C276.34 54 275.68 54 275 54 Z M318 55 C319 58 319 58 319 58 Z M274 56 C275 60 275 60 275 60 Z M217 58 C218 60 218 60 218 60 Z M227 58 C227.66 58.66 228.32 59.32 229 60 C229 59.34 229 58.68 229 58 C228.34 58 227.68 58 227 58 Z M322 58 C323 61 323 61 323 61 Z M287 59 C287 59.33 287 59.66 287 60 C289.64 60 292.28 60 295 60 C295 59.67 295 59.34 295 59 C292.36 59 289.72 59 287 59 Z M216 61 C217 64 217 64 217 64 Z M227 61 C228 63 228 63 228 63 Z M235 61 C236 64 236 64 236 64 Z M321 62 C322 64 322 64 322 64 Z M226 63 C227 65 227 65 227 65 Z M231 64 C232 66 232 66 232 66 Z M234 64 C235 66 235 66 235 66 Z M315 64 C316 66 316 66 316 66 Z M320 64 C321 66 321 66 321 66 Z M265 65 C266 67 266 67 266 67 Z M287 65 C287 65.33 287 65.66 287 66 C289.31 66 291.62 66 294 66 C294 65.67 294 65.34 294 65 C291.69 65 289.38 65 287 65 Z M215 67 C215 70.63 215 74.26 215 78 C215.33 78 215.66 78 216 78 C216 74.37 216 70.74 216 67 C215.67 67 215.34 67 215 67 Z M233 67 C234 70 234 70 234 70 Z M247 67 C248 69 248 69 248 69 Z M238 68 C239 70 239 70 239 70 Z M318 68 C319 70 319 70 319 70 Z M264 69 C265 72 265 72 265 72 Z M232 70 C233 72 233 72 233 72 Z M282 70 C282 70.33 282 70.66 282 71 C284.64 71 287.28 71 290 71 C290 70.67 290 70.34 290 70 C287.36 70 284.72 70 282 70 Z M263 72 C264 76 264 76 264 76 Z M250 73 C251 75 251 75 251 75 Z M268 74 C268.33 74.66 268.66 75.32 269 76 C269.33 75.34 269.66 74.68 270 74 C269.34 74 268.68 74 268 74 Z M245 75 C245 76.65 245 78.3 245 80 C245.33 80 245.66 80 246 80 C246 78.35 246 76.7 246 75 C245.67 75 245.34 75 245 75 Z M251 75 C252 77 252 77 252 77 Z M237 76 C238 78 238 78 238 78 Z M268 77 C269 79 269 79 269 79 Z M276 78 C276 78.33 276 78.66 276 79 C279.3 79 282.6 79 286 79 C286 78.67 286 78.34 286 78 C282.7 78 279.4 78 276 78 Z M252 79 C253 81 253 81 253 81 Z M244 80 C245 82 245 82 245 82 Z M262 80 C263 83 263 83 263 83 Z M216 81 C217 84 217 84 217 84 Z M234 81 C235 83 235 83 235 83 Z M224 82 C223.67 82.99 223.34 83.98 223 85 C223.66 85 224.32 85 225 85 C224.67 84.01 224.34 83.02 224 82 Z M243 82 C244 84 244 84 244 84 Z M296 83 C295.67 83.66 295.34 84.32 295 85 C295.99 84.67 296.98 84.34 298 84 C297.34 83.67 296.68 83.34 296 83 Z M261 84 C262 87 262 87 262 87 Z M272 84 C273 86 273 86 273 86 Z M217 85 C218 88 218 88 218 88 Z M253 87 C253 89.97 253 92.94 253 96 C253.33 96 253.66 96 254 96 C254 93.03 254 90.06 254 87 C253.67 87 253.34 87 253 87 Z M219 92 C220 95 220 95 220 95 Z M260 92 C261 94 261 94 261 94 Z M245 93 C246 95 246 95 246 95 Z M225 94 C225.33 94.66 225.66 95.32 226 96 C226.66 96 227.32 96 228 96 C228 95.34 228 94.68 228 94 C227.01 94 226.02 94 225 94 Z M232 94 C233 96 233 96 233 96 Z M259 95 C260 97 260 97 260 97 Z M243 96 C244 98 244 98 244 98 Z M222 100 C223 102 223 102 223 102 Z M252 101 C253 104 253 104 253 104 Z M245 102 C243.36323743 103.9600281 243.36323743 103.9600281 242 106 C242.99 106 243.98 106 245 106 C245.66 104.68 246.32 103.36 247 102 C246.34 102 245.68 102 245 102 Z M223 103 C224 105 224 105 224 105 Z M228 103 C228.33 103.99 228.66 104.98 229 106 C229.99 105.67 230.98 105.34 232 105 C230.68 104.34 229.36 103.68 228 103 Z M296 103 C296 103.33 296 103.66 296 104 C297.65 104 299.3 104 301 104 C301 103.67 301 103.34 301 103 C299.35 103 297.7 103 296 103 Z M255 104 C255 107 255 107 255 107 Z M290 104 C294 105 294 105 294 105 Z M224 105 C225 107 225 107 225 107 Z M251 105 C252 108 252 108 252 108 Z M278 105 C282 106 282 106 282 106 Z M309 107 C309 110.96 309 114.92 309 119 C309.33 119 309.66 119 310 119 C310 115.04 310 111.08 310 107 C309.67 107 309.34 107 309 107 Z M225 108 C226 110 226 110 226 110 Z M289 108 C289.33 108.66 289.66 109.32 290 110 C290.66 109.67 291.32 109.34 292 109 C292.33 109.99 292.66 110.98 293 112 C293 110.68 293 109.36 293 108 C291.68 108 290.36 108 289 108 Z M305 108 C306 110 306 110 306 110 Z M252 109 C253 111 253 111 253 111 Z M298 109 C299 112 299 112 299 112 Z M284 110 C285 112 285 112 285 112 Z M288 110 C289 113 289 113 289 113 Z M244 111 C243.01 112.485 243.01 112.485 242 114 C242.99 113.67 243.98 113.34 245 113 C244.67 112.34 244.34 111.68 244 111 Z M266 111 C265.67 111.66 265.34 112.32 265 113 C265.99 112.67 266.98 112.34 268 112 C267.34 111.67 266.68 111.34 266 111 Z M281 111 C282 113 282 113 282 113 Z M296 111 C296 111.66 296 112.32 296 113 C296.66 112.67 297.32 112.34 298 112 C297.34 111.67 296.68 111.34 296 111 Z M227 112 C228 114 228 114 228 114 Z M251 112 C252 114 252 114 252 114 Z M276 112 C277 114 277 114 277 114 Z M283 113 C283 116.3 283 119.6 283 123 C283.33 123 283.66 123 284 123 C284 119.7 284 116.4 284 113 C283.67 113 283.34 113 283 113 Z M280 114 C281 117 281 117 281 117 Z M249 115 C250 117 250 117 250 117 Z M298 116 C297.67 116.66 297.34 117.32 297 118 C297.66 118 298.32 118 299 118 C298.67 117.34 298.34 116.68 298 116 Z M287 117 C287 117.99 287 118.98 287 120 C287.66 119.67 288.32 119.34 289 119 C288.34 118.34 287.68 117.68 287 117 Z M303 117 C303 117.66 303 118.32 303 119 C303.66 119 304.32 119 305 119 C305 118.34 305 117.68 305 117 C304.34 117 303.68 117 303 117 Z M230 118 C231 120 231 120 231 120 Z M273 118 C274 120 274 120 274 120 Z M279 118 C279 119.65 279 121.3 279 123 C279.33 123 279.66 123 280 123 C280 121.35 280 119.7 280 118 C279.67 118 279.34 118 279 118 Z M267 119 C267.66 120.32 268.32 121.64 269 123 C269 121.68 269 120.36 269 119 C268.34 119 267.68 119 267 119 Z M308 121 C309 123 309 123 309 123 Z M304 122 C304.33 122.99 304.66 123.98 305 125 C305 124.01 305 123.02 305 122 C304.67 122 304.34 122 304 122 Z M307 124 C308 126 308 126 308 126 Z M272 125 C272 125.99 272 126.98 272 128 C272.66 127.67 273.32 127.34 274 127 C273.34 126.34 272.68 125.68 272 125 Z M186 126 C186 126.33 186 126.66 186 127 C187.65 127 189.3 127 191 127 C191 126.67 191 126.34 191 126 C189.35 126 187.7 126 186 126 Z M292 126 C292 128.31 292 130.62 292 133 C292.33 133 292.66 133 293 133 C293 130.69 293 128.38 293 126 C292.67 126 292.34 126 292 126 Z M306 126 C307 129 307 129 307 129 Z M177 127 C181 128 181 128 181 128 Z M265 128 C266 132 266 132 266 132 Z M268 128 C269 130 269 130 269 130 Z M249 129 C250 131 250 131 250 131 Z M260 129 C261 131 261 131 261 131 Z M280 129 C280.33 129.66 280.66 130.32 281 131 C281.33 130.34 281.66 129.68 282 129 C281.34 129 280.68 129 280 129 Z M294 129 C295 133 295 133 295 133 Z M307 130 C308 132 308 132 308 132 Z M166 131 C167 134 167 134 167 134 Z M172 132 C172 132.99 172 133.98 172 135 C172.99 134.67 173.98 134.34 175 134 C174.67 134.99 174.34 135.98 174 137 C174.99 137 175.98 137 177 137 C176.67 135.35 176.34 133.7 176 132 C174.68 132 173.36 132 172 132 Z M186 132 C187 134 187 134 187 134 Z M259 132 C260 134 260 134 260 134 Z M193 133 C194 136 194 136 194 136 Z M252 133 C253 135 253 135 253 135 Z M272 133 C271.67 133.66 271.34 134.32 271 135 C272.65 134.67 274.3 134.34 276 134 C274.68 133.67 273.36 133.34 272 133 Z M239 134 C240 136 240 136 240 136 Z M292 134 C293 137 293 137 293 137 Z M167 135 C168 137 168 137 168 137 Z M273 135 C277 136 277 136 277 136 Z M285 135 C285 137.64 285 140.28 285 143 C285.33 143 285.66 143 286 143 C286 140.36 286 137.72 286 135 C285.67 135 285.34 135 285 135 Z M288 135 C288 136.65 288 138.3 288 140 C288.33 140 288.66 140 289 140 C289 138.35 289 136.7 289 135 C288.67 135 288.34 135 288 135 Z M196 136 C195.67 136.66 195.34 137.32 195 138 C195.66 138 196.32 138 197 138 C196.67 137.34 196.34 136.68 196 136 Z M200 136 C201 138 201 138 201 138 Z M247 137 C248 139 248 139 248 139 Z M264 137 C264.33 137.99 264.66 138.98 265 140 C266.65 140 268.3 140 270 140 C270 139.34 270 138.68 270 138 C267.03 137.505 267.03 137.505 264 137 Z M280 137 C280.33 138.98 280.66 140.96 281 143 C281.33 143 281.66 143 282 143 C282 141.02 282 139.04 282 137 C281.34 137 280.68 137 280 137 Z M309 137 C310 140 310 140 310 140 Z M250 138 C251 140 251 140 251 140 Z M169 139 C170 141 170 141 170 141 Z M207 139 C208 141 208 141 208 141 Z M240 139 C241 141 241 141 241 141 Z M246 139 C247 142 247 142 247 142 Z M289 140 C290 143 290 143 290 143 Z M170 141 C171 143 171 143 171 143 Z M293 141 C294 143 294 143 294 143 Z M310 141 C310 142.65 310 144.3 310 146 C310.33 146 310.66 146 311 146 C311 144.35 311 142.7 311 141 C310.67 141 310.34 141 310 141 Z M239 142 C240 146 240 146 240 146 Z M177 143 C177 143.66 177 144.32 177 145 C178.32 144.67 179.64 144.34 181 144 C179.68 143.67 178.36 143.34 177 143 Z M294 143 C295 145 295 145 295 145 Z M301 143 C300.67 143.99 300.34 144.98 300 146 C300.99 146 301.98 146 303 146 C302.34 145.01 301.68 144.02 301 143 Z M282 144 C282 145.98 282 147.96 282 150 C282.33 150 282.66 150 283 150 C283 148.02 283 146.04 283 144 C282.67 144 282.34 144 282 144 Z M192 144 C191.01 144.99 190.02 145.98 189 147 C190.32 146.67 191.64 146.34 193 146 C192.67 145.34 192.34 144.68 192 144 Z M290 145 C291 147 291 147 291 147 Z M295 145 C296 147 296 147 296 147 Z M245 146 C245.33 146.99 245.66 147.98 246 149 C246 148.01 246 147.02 246 146 C245.67 146 245.34 146 245 146 Z M185 147 C185.33 147.66 185.66 148.32 186 149 C186.33 148.34 186.66 147.68 187 147 C186.34 147 185.68 147 185 147 Z M258 147 C258 147.33 258 147.66 258 148 C259.98 148 261.96 148 264 148 C264 147.67 264 147.34 264 147 C262.02 147 260.04 147 258 147 Z M265 147 C266 150 266 150 266 150 Z M271 147 C272 149 272 149 272 149 Z M286 147 C287 150 287 150 287 150 Z M291 147 C292 149 292 149 292 149 Z M174 148 C175 150 175 150 175 150 Z M195 148 C194.67 148.99 194.34 149.98 194 151 C195.65 150.67 197.3 150.34 199 150 C197.68 149.34 196.36 148.68 195 148 Z M238 148 C238 149.98 238 151.96 238 154 C238.33 154 238.66 154 239 154 C239 152.02 239 150.04 239 148 C238.67 148 238.34 148 238 148 Z M305 148 C305.33 149.65 305.66 151.3 306 153 C306.33 153 306.66 153 307 153 C307 151.35 307 149.7 307 148 C306.34 148 305.68 148 305 148 Z M191 150 C190.67 150.66 190.34 151.32 190 152 C190.99 151.67 191.98 151.34 193 151 C192.34 150.67 191.68 150.34 191 150 Z M264 150 C265 152 265 152 265 152 Z M269 150 C270 152 270 152 270 152 Z M287 150 C288 153 288 153 288 153 Z M292 150 C293 152 293 152 293 152 Z M283 151 C284 154 284 154 284 154 Z M183 152 C183.66 152.66 184.32 153.32 185 154 C185 153.34 185 152.68 185 152 C184.34 152 183.68 152 183 152 Z M263 152 C264 154 264 154 264 154 Z M268 152 C268 155.3 268 158.6 268 162 C268.33 162 268.66 162 269 162 C269 158.7 269 155.4 269 152 C268.67 152 268.34 152 268 152 Z M227 153 C228 155 228 155 228 155 Z M248 153 C249 155 249 155 249 155 Z M273 154 C274 156 274 156 274 156 Z M277 154 C278 157 278 157 278 157 Z M284 154 C285 156 285 156 285 156 Z M288 154 C288 154.99 288 155.98 288 157 C288.66 156.67 289.32 156.34 290 156 C289.34 155.34 288.68 154.68 288 154 Z M188 156 C188.33 156.66 188.66 157.32 189 158 C189.33 157.34 189.66 156.68 190 156 C189.34 156 188.68 156 188 156 Z M262 156 C263 160 263 160 263 160 Z M181 157 C181 157.66 181 158.32 181 159 C181.66 158.67 182.32 158.34 183 158 C182.34 157.67 181.68 157.34 181 157 Z M220 157 C219.01 158.485 219.01 158.485 218 160 C219.65 160 221.3 160 223 160 C222.67 159.01 222.34 158.02 222 157 C221.34 157 220.68 157 220 157 Z M278 157 C279 159 279 159 279 159 Z M310 157 C311 160 311 160 311 160 Z M238 158 C238 159.98 238 161.96 238 164 C238.33 164 238.66 164 239 164 C239 162.02 239 160.04 239 158 C238.67 158 238.34 158 238 158 Z M246 158 C247 160 247 160 247 160 Z M274 158 C275 161 275 161 275 161 Z M286 159 C287 161 287 161 287 161 Z M197 160 C197.33 160.66 197.66 161.32 198 162 C199.32 161.67 200.64 161.34 202 161 C200.35 160.67 198.7 160.34 197 160 Z M231 160 C232 162 232 162 232 162 Z M265 160 C266 163 266 163 266 163 Z M261 161 C261 168.26 261 175.52 261 183 C261.33 183 261.66 183 262 183 C262 175.74 262 168.48 262 161 C261.67 161 261.34 161 261 161 Z M279 161 C280 163 280 163 280 163 Z M309 161 C310 163 310 163 310 163 Z M245 162 C246 165 246 165 246 165 Z M275 162 C276 164 276 164 276 164 Z M304 162 C305 164 305 164 305 164 Z M280 163 C281 165 281 165 281 165 Z M308 163 C309 165 309 165 309 165 Z M218 164 C218 164.33 218 164.66 218 165 C219.98 165 221.96 165 224 165 C224 164.67 224 164.34 224 164 C222.02 164 220.04 164 218 164 Z M233 164 C234 166 234 166 234 166 Z M276 164 C277 167 277 167 277 167 Z M212 165 C216 166 216 166 216 166 Z M269 165 C270 167 270 167 270 167 Z M281 165 C281.66 165.66 282.32 166.32 283 167 C283 166.34 283 165.68 283 165 C282.34 165 281.68 165 281 165 Z M198 166 C198 166.33 198 166.66 198 167 C200.31 167 202.62 167 205 167 C205 166.67 205 166.34 205 166 C202.69 166 200.38 166 198 166 Z M307 166 C308 168 308 168 308 168 Z M235 167 C236 169 236 169 236 169 Z M289 167 C289 167.33 289 167.66 289 168 C290.98 168 292.96 168 295 168 C295 167.67 295 167.34 295 167 C293.02 167 291.04 167 289 167 Z M239 168 C240 172 240 172 240 172 Z M246 169 C247 173 247 173 247 173 Z M270 169 C271 171 271 171 271 171 Z M295 171 C295.66 171.66 296.32 172.32 297 173 C297.33 172.34 297.66 171.68 298 171 C297.01 171 296.02 171 295 171 Z M240 172 C239.67 172.99 239.34 173.98 239 175 C239.66 175 240.32 175 241 175 C240.67 174.01 240.34 173.02 240 172 Z M271 172 C272 174 272 174 272 174 Z M282 172 C282 172.33 282 172.66 282 173 C283.98 173 285.96 173 288 173 C288 172.67 288 172.34 288 172 C286.02 172 284.04 172 282 172 Z M247 174 C248 177 248 177 248 177 Z M272 174 C273 176 273 176 273 176 Z M278 175 C278 175.66 278 176.32 278 177 C280.64 177 283.28 177 286 177 C286 176.67 286 176.34 286 176 C283.36 175.67 280.72 175.34 278 175 Z M248 181 C249 183 249 183 249 183 Z M215 183 C219 184 219 184 219 184 Z M219 184 C223 185 223 185 223 185 Z M249 184 C250 187 250 187 250 187 Z M266 185 C265.67 185.66 265.34 186.32 265 187 C265.99 186.67 266.98 186.34 268 186 C267.34 185.67 266.68 185.34 266 185 Z M209 186 C209 188.31 209 190.62 209 193 C209.33 193 209.66 193 210 193 C210 190.69 210 188.38 210 186 C209.67 186 209.34 186 209 186 Z M214 186 C213.67 187.32 213.34 188.64 213 190 C214.98 189.67 216.96 189.34 219 189 C217.62514468 187.45833358 217.62514468 187.45833358 216 186 C215.34 186 214.68 186 214 186 Z M241 186 C242 188 242 188 242 188 Z M259 188 C260 190 260 190 260 190 Z M250 189 C251 191 251 191 251 191 Z M243 190 C244 192 244 192 244 192 Z M251 192 C252 194 252 194 252 194 Z M230 193 C231 195 231 195 231 195 Z M232 193 C233 196 233 196 233 196 Z M256 193 C257 195 257 195 257 195 Z M209 194 C210 196 210 196 210 196 Z M244 194 C244.66 194.66 245.32 195.32 246 196 C246 195.34 246 194.68 246 194 C245.34 194 244.68 194 244 194 Z M252 195 C253 197 253 197 253 197 Z M255 195 C256 197 256 197 256 197 Z M231 196 C232 198 232 198 232 198 Z M239 197 C240 201 240 201 240 201 Z M260 197 C261 199 261 199 261 199 Z M219 198 C223 199 223 199 223 199 Z M253 198 C254 200 254 200 254 200 Z M259 199 C260 201 260 201 260 201 Z M243 201 C243 202.65 243 204.3 243 206 C243.33 206 243.66 206 244 206 C244 204.35 244 202.7 244 201 C243.67 201 243.34 201 243 201 Z M215 202 C215.33 202.66 215.66 203.32 216 204 C216.66 203.34 217.32 202.68 218 202 C217.01 202 216.02 202 215 202 Z M245 202 C246 205 246 205 246 205 Z M221 203 C225 204 225 204 225 204 Z M237 203 C238 205 238 205 238 205 Z M258 203 C259 206 259 206 259 206 Z M232 205 C231.01 205.66 230.02 206.32 229 207 C230.32 207 231.64 207 233 207 C232.67 206.34 232.34 205.68 232 205 Z M257 206 C257 207.98 257 209.96 257 212 C257.33 212 257.66 212 258 212 C258 210.02 258 208.04 258 206 C257.67 206 257.34 206 257 206 Z M198 207 C199 209 199 209 199 209 Z M203 207 C203.33 207.99 203.66 208.98 204 210 C204.66 209.01 205.32 208.02 206 207 C205.01 207 204.02 207 203 207 Z M215 208 C215.33 208.66 215.66 209.32 216 210 C217.32 209.34 218.64 208.68 220 208 C218.35 208 216.7 208 215 208 Z M244 208 C245 211 245 211 245 211 Z M248 208 C248 209.32 248 210.64 248 212 C248.66 211.67 249.32 211.34 250 211 C250 210.01 250 209.02 250 208 C249.34 208 248.68 208 248 208 Z M197 209 C198 211 198 211 198 211 Z M220 209 C220 209.33 220 209.66 220 210 C221.65 210 223.3 210 225 210 C225 209.67 225 209.34 225 209 C223.35 209 221.7 209 220 209 Z M242 209 C243 211 243 211 243 211 Z M230 210 C230 210.33 230 210.66 230 211 C232.31 211 234.62 211 237 211 C237 210.67 237 210.34 237 210 C234.69 210 232.38 210 230 210 Z M212 212 C213 214 213 214 213 214 Z M224 212 C224 212.33 224 212.66 224 213 C225.65 213 227.3 213 229 213 C229 212.67 229 212.34 229 212 C227.35 212 225.7 212 224 212 Z M195 213 C196 215 196 215 196 215 Z M237 212 C234.39719432 212.32041397 234.39719432 212.32041397 232 213 C232 213.33 232 213.66 232 214 C234.31 214 236.62 214 239 214 C238.34 213.34 237.68 212.68 237 212 Z M248 213 C247.67 213.99 247.34 214.98 247 216 C247.99 216.495 247.99 216.495 249 217 C248.67 215.68 248.34 214.36 248 213 Z M258 213 C259 217 259 217 259 217 Z M216 214 C217 218 217 218 217 218 Z M199 216 C200 218 200 218 200 218 Z M246 216 C247 218 247 218 247 218 Z M201 217 C201 220 201 220 201 220 Z M227 217 C227 217.33 227 217.66 227 218 C230.3 218 233.6 218 237 218 C237 217.67 237 217.34 237 217 C233.7 217 230.4 217 227 217 Z M193 218 C193 221 193 221 193 221 Z M210 218 C211 220 211 220 211 220 Z M238 218 C242 219 242 219 242 219 Z M247 218 C248 220 248 220 248 220 Z M252 218 C252 218.66 252 219.32 252 220 C252.66 220 253.32 220 254 220 C254 219.34 254 218.68 254 218 C253.34 218 252.68 218 252 218 Z M259 220 C259 220.66 259 221.32 259 222 C259.66 221.67 260.32 221.34 261 221 C260.34 220.67 259.68 220.34 259 220 Z M209 221 C210 223 210 223 210 223 Z M217 221 C217 221.66 217 222.32 217 223 C217.66 222.67 218.32 222.34 219 222 C218.34 221.67 217.68 221.34 217 221 Z M251 221 C252 223 252 223 252 223 Z M253 221 C254 223 254 223 254 223 Z M330 221 C331 223 331 223 331 223 Z M196 222 C196.33 222.66 196.66 223.32 197 224 C197.33 223.34 197.66 222.68 198 222 C197.34 222 196.68 222 196 222 Z M211 222 C212 224 212 224 212 224 Z M243 222 C242.01 222.66 241.02 223.32 240 224 C241.32 224 242.64 224 244 224 C243.67 223.34 243.34 222.68 243 222 Z M252 223 C253 225 253 225 253 225 Z M208 224 C209 228 209 228 209 228 Z M250 224 C251 227 251 227 251 227 Z M190 225 C191 227 191 227 191 227 Z M210 225 C211 227 211 227 211 227 Z M214 225 C214.33 225.99 214.66 226.98 215 228 C215.33 227.01 215.66 226.02 216 225 C215.34 225 214.68 225 214 225 Z M273 226 C274 228 274 228 274 228 Z M216 227 C217 230 217 230 217 230 Z M232 227 C232 227.33 232 227.66 232 228 C233.65 228 235.3 228 237 228 C237 227.67 237 227.34 237 227 C235.35 227 233.7 227 232 227 Z M332 227 C333 230 333 230 333 230 Z M189 228 C190 231 190 231 190 231 Z M204 229 C205 231 205 231 205 231 Z M246 229 C247 231 247 231 247 231 Z M193 230 C193 231.65 193 233.3 193 235 C193.66 233.68 194.32 232.36 195 231 C194.34 230.67 193.68 230.34 193 230 Z M263 230 C264 232 264 232 264 232 Z M276 231 C277 233 277 233 277 233 Z M319 231 C320 233 320 233 320 233 Z M188 232 C189 235 189 235 189 235 Z M204 232 C204 232.66 204 233.32 204 234 C204.66 234 205.32 234 206 234 C206 233.34 206 232.68 206 232 C205.34 232 204.68 232 204 232 Z M233 232 C237 233 237 233 237 233 Z M211 233 C210.67 234.65 210.34 236.3 210 238 C210.99 238 211.98 238 213 238 C212.67 236.35 212.34 234.7 212 233 C211.67 233 211.34 233 211 233 Z M237 233 C237 233.33 237 233.66 237 234 C239.64 234 242.28 234 245 234 C245 233.67 245 233.34 245 233 C242.36 233 239.72 233 237 233 Z M258 233 C258.66 233.66 259.32 234.32 260 235 C260 234.34 260 233.68 260 233 C259.34 233 258.68 233 258 233 Z M314 233 C314.66 234.32 315.32 235.64 316 237 C316 235.68 316 234.36 316 233 C315.34 233 314.68 233 314 233 Z M256 234 C256 234.99 256 235.98 256 237 C256.66 236.67 257.32 236.34 258 236 C257.34 235.34 256.68 234.68 256 234 Z M333 234 C334 237 334 237 334 237 Z M187 235 C187 238.96 187 242.92 187 247 C187.33 247 187.66 247 188 247 C188 243.04 188 239.08 188 235 C187.67 235 187.34 235 187 235 Z M201 235 C201 235.66 201 236.32 201 237 C201.66 236.67 202.32 236.34 203 236 C202.34 235.67 201.68 235.34 201 235 Z M218 235 C218.99 236.485 218.99 236.485 220 238 C220 237.01 220 236.02 220 235 C219.34 235 218.68 235 218 235 Z M223 235 C223 235.66 223 236.32 223 237 C223.66 236.67 224.32 236.34 225 236 C224.34 235.67 223.68 235.34 223 235 Z M272 235 C273 238 273 238 273 238 Z M320 235 C321 238 321 238 321 238 Z M217 236 C218 238 218 238 218 238 Z M203 237 C203 237.66 203 238.32 203 239 C203.66 238.67 204.32 238.34 205 238 C204.34 237.67 203.68 237.34 203 237 Z M235 237 C235 237.33 235 237.66 235 238 C237.97 238 240.94 238 244 238 C244 237.67 244 237.34 244 237 C241.03 237 238.06 237 235 237 Z M269 237 C269 238.32 269 239.64 269 241 C269.66 240.67 270.32 240.34 271 240 C270.34 239.01 269.68 238.02 269 237 Z M279 237 C280 239 280 239 280 239 Z M334 237 C334 241.29 334 245.58 334 250 C334.33 250 334.66 250 335 250 C335 245.71 335 241.42 335 237 C334.67 237 334.34 237 334 237 Z M264 238 C263.67 239.32 263.34 240.64 263 242 C263.66 242 264.32 242 265 242 C264.67 240.68 264.34 239.36 264 238 Z M328 238 C328.99 239.485 328.99 239.485 330 241 C330 240.01 330 239.02 330 238 C329.34 238 328.68 238 328 238 Z M229 240 C229 240.33 229 240.66 229 241 C230.65 241 232.3 241 234 241 C234 240.67 234 240.34 234 240 C232.35 240 230.7 240 229 240 Z M214 241 C215 243 215 243 215 243 Z M276 241 C277 243 277 243 277 243 Z M305 241 C305 242.98 305 244.96 305 247 C305.33 247 305.66 247 306 247 C306 245.02 306 243.04 306 241 C305.67 241 305.34 241 305 241 Z M324 241 C324 241.99 324 242.98 324 244 C324.66 243.67 325.32 243.34 326 243 C325.34 242.34 324.68 241.68 324 241 Z M216 242 C217 244 217 244 217 244 Z M224 242 C224 244.97 224 247.94 224 251 C224.33 251 224.66 251 225 251 C225.33 248.03 225.66 245.06 226 242 C225.34 242 224.68 242 224 242 Z M308 242 C309 244 309 244 309 244 Z M207 243 C206.67 244.32 206.34 245.64 206 247 C206.66 247 207.32 247 208 247 C207.67 245.68 207.34 244.36 207 243 Z M252 243 C252.66 243.66 253.32 244.32 254 245 C254 244.34 254 243.68 254 243 C253.34 243 252.68 243 252 243 Z M313 243 C314 246 314 246 314 246 Z M192 244 C193 247 193 247 193 247 Z M309 245 C309 246.65 309 248.3 309 250 C309.33 250 309.66 250 310 250 C310 248.35 310 246.7 310 245 C309.67 245 309.34 245 309 245 Z M212 246 C213 248 213 248 213 248 Z M272 246 C273 248 273 248 273 248 Z M328 246 C328.66 247.32 329.32 248.64 330 250 C330 248.68 330 247.36 330 246 C329.34 246 328.68 246 328 246 Z M219 247 C218.34 248.32 217.68 249.64 217 251 C217.66 251.66 218.32 252.32 219 253 C219.33 251.02 219.66 249.04 220 247 C219.67 247 219.34 247 219 247 Z M248 247 C249 249 249 249 249 249 Z M293 247 C292.67 247.66 292.34 248.32 292 249 C292.66 249 293.32 249 294 249 C293.67 248.34 293.34 247.68 293 247 Z M314 247 C314.33 248.32 314.66 249.64 315 251 C315 249.68 315 248.36 315 247 C314.67 247 314.34 247 314 247 Z M188 248 C189 251 189 251 189 251 Z M271 248 C272 251 272 251 272 251 Z M298 248 C298 249.98 298 251.96 298 254 C298.33 254 298.66 254 299 254 C299 252.02 299 250.04 299 248 C298.67 248 298.34 248 298 248 Z M266 249 C267 251 267 251 267 251 Z M275 249 C276 251 276 251 276 251 Z M301 249 C302 251 302 251 302 251 Z M333 250 C334 253 334 253 334 253 Z M216 251 C217 253 217 253 217 253 Z M279 251 C280 253 280 253 280 253 Z M306 251 C307 254 307 254 307 254 Z M199 252 C199.33 252.66 199.66 253.32 200 254 C200.66 253.67 201.32 253.34 202 253 C201.01 252.67 200.02 252.34 199 252 Z M241 252 C242 254 242 254 242 254 Z M286 252 C287 255 287 255 287 255 Z M302 252 C303 255 303 255 303 255 Z M189 253 C190 255 190 255 190 255 Z M272 253 C272.33 253.99 272.66 254.98 273 256 C273.33 255.01 273.66 254.02 274 253 C273.34 253 272.68 253 272 253 Z M281 253 C282 255 282 255 282 255 Z M195 254 C194.67 254.66 194.34 255.32 194 256 C194.99 256.99 195.98 257.98 197 259 C197.33 257.68 197.66 256.36 198 255 C197.01 254.67 196.02 254.34 195 254 Z M214 254 C214 255.98 214 257.96 214 260 C214.66 259.01 215.32 258.02 216 257 C215.34 256.01 214.68 255.02 214 254 Z M253 254 C253 254.66 253 255.32 253 256 C253.66 255.67 254.32 255.34 255 255 C254.34 254.67 253.68 254.34 253 254 Z M190 255 C191 257 191 257 191 257 Z M216 255 C217 257 217 257 217 257 Z M307 255 C308 259 308 259 308 259 Z M320 255 C320 255.33 320 255.66 320 256 C321.65 256 323.3 256 325 256 C325 255.67 325 255.34 325 255 C323.35 255 321.7 255 320 255 Z M332 255 C333 257 333 257 333 257 Z M209 256 C209 257.65 209 259.3 209 261 C209.33 261 209.66 261 210 261 C210 259.35 210 257.7 210 256 C209.67 256 209.34 256 209 256 Z M288 256 C289 258 289 258 289 258 Z M223 257 C224 260 224 260 224 260 Z M240 257 C240 258.65 240 260.3 240 262 C240.33 262 240.66 262 241 262 C241 260.35 241 258.7 241 257 C240.67 257 240.34 257 240 257 Z M245 257 C246 261 246 261 246 261 Z M276 257 C277 259 277 259 277 259 Z M299 257 C300 261 300 261 300 261 Z M331 257 C332 259 332 259 332 259 Z M295 258 C296 261 296 261 296 261 Z M309 258 C309 261 309 261 309 261 Z M282 259 C283 261 283 261 283 261 Z M198 261 C199 263 199 263 199 263 Z M300 261 C301 264 301 264 301 264 Z M296 262 C297 264 297 264 297 264 Z M312 262 C312 262.66 312 263.32 312 264 C312.99 263.67 313.98 263.34 315 263 C314.01 262.67 313.02 262.34 312 262 Z M199 263 C199.66 263.66 200.32 264.32 201 265 C201 264.34 201 263.68 201 263 C200.34 263 199.68 263 199 263 Z M222 263 C223 267 223 267 223 267 Z M293 263 C294 266 294 266 294 266 Z M328 263 C329 265 329 265 329 265 Z M216 264 C216.66 264.66 217.32 265.32 218 266 C218 265.34 218 264.68 218 264 C217.34 264 216.68 264 216 264 Z M258 264 C258.33 264.66 258.66 265.32 259 266 C259.66 265.67 260.32 265.34 261 265 C260.01 264.67 259.02 264.34 258 264 Z M270 264 C271 268 271 268 271 268 Z M309 264 C308.67 264.66 308.34 265.32 308 266 C308.66 266 309.32 266 310 266 C309.67 265.34 309.34 264.68 309 264 Z M201 265 C201.66 265.66 202.32 266.32 203 267 C203 266.34 203 265.68 203 265 C202.34 265 201.68 265 201 265 Z M215 265 C215 266.32 215 267.64 215 269 C215.66 269 216.32 269 217 269 C216.34 267.68 215.68 266.36 215 265 Z M296 265 C297 267 297 267 297 267 Z M301 265 C301.33 265.99 301.66 266.98 302 268 C302 267.01 302 266.02 302 265 C301.67 265 301.34 265 301 265 Z M210 266 C211 268 211 268 211 268 Z M244 266 C245 269 245 269 245 269 Z M275 266 C276 268 276 268 276 268 Z M285 266 C286 269 286 269 286 269 Z M240 267 C240 268.65 240 270.3 240 272 C240.33 272 240.66 272 241 272 C241 270.35 241 268.7 241 267 C240.67 267 240.34 267 240 267 Z M294 267 C295 271 295 271 295 271 Z M317 267 C317.66 267.66 318.32 268.32 319 269 C319.33 268.34 319.66 267.68 320 267 C319.01 267 318.02 267 317 267 Z M211 268 C212 272 212 272 212 272 Z M265 269 C265.66 269.66 266.32 270.32 267 271 C267 270.34 267 269.68 267 269 C266.34 269 265.68 269 265 269 Z M245 270 C246 272 246 272 246 272 Z M219 275 C220 277 220 277 220 277 Z M241 275 C242 277 242 277 242 277 Z M272 277 C272 280 272 280 272 280 Z M290 277 C291 279 291 279 291 279 Z M277 279 C277 279.99 277 280.98 277 282 C277.66 281.67 278.32 281.34 279 281 C278.34 280.34 277.68 279.68 277 279 Z M243 280 C244 282 244 282 244 282 Z M285 280 C285.66 280.66 286.32 281.32 287 282 C287 281.34 287 280.68 287 280 C286.34 280 285.68 280 285 280 Z M293 280 C292.67 280.66 292.34 281.32 292 282 C292.99 281.67 293.98 281.34 295 281 C294.34 280.67 293.68 280.34 293 280 Z M213 281 C214 283 214 283 214 283 Z M219 281 C220 284 220 284 220 284 Z M249 281 C250 283 250 283 250 283 Z M244 282 C245 284 245 284 245 284 Z M285 283 C286 285 286 285 286 285 Z M214 284 C215 286 215 286 215 286 Z M245 284 C246 286 246 286 246 286 Z M196 286 C196 286.33 196 286.66 196 287 C198.64 287 201.28 287 204 287 C204 286.67 204 286.34 204 286 C201.36 286 198.72 286 196 286 Z M246 286 C247 288 247 288 247 288 Z M273 286 C272.67 287.98 272.34 289.96 272 292 C272.66 291.67 273.32 291.34 274 291 C274 289.35 274 287.7 274 286 C273.67 286 273.34 286 273 286 Z M278 286 C278 287.65 278 289.3 278 291 C278.33 291 278.66 291 279 291 C279 289.35 279 287.7 279 286 C278.67 286 278.34 286 278 286 Z M192 288 C193 291 193 291 193 291 Z M247 288 C248 290 248 290 248 290 Z M289 288 C290 290 290 290 290 290 Z M197 290 C196.67 290.66 196.34 291.32 196 292 C196.33 292.66 196.66 293.32 197 294 C197.66 294 198.32 294 199 294 C199.33 292.68 199.66 291.36 200 290 C199.01 290 198.02 290 197 290 Z M288 290 C289 292 289 292 289 292 Z M193 292 C194 294 194 294 194 294 Z M217 292 C217.33 292.99 217.66 293.98 218 295 C218.33 294.01 218.66 293.02 219 292 C218.34 292 217.68 292 217 292 Z M286 294 C287 296 287 296 287 296 Z M194 295 C195 298 195 298 195 298 Z M221 295 C222 299 222 299 222 299 Z M218 296 C219 298 219 298 219 298 Z M252 296 C253 298 253 298 253 298 Z M202 297 C202 297.66 202 298.32 202 299 C202.99 298.67 203.98 298.34 205 298 C204.01 297.67 203.02 297.34 202 297 Z M257 297 C258 299 258 299 258 299 Z M195 298 C196 300 196 300 196 300 Z M219 299 C220 301 220 301 220 301 Z M222 299 C221.67 300.32 221.34 301.64 221 303 C221.66 303 222.32 303 223 303 C222.67 301.68 222.34 300.36 222 299 Z M226 299 C226 300.65 226 302.3 226 304 C226.33 304 226.66 304 227 304 C227 302.35 227 300.7 227 299 C226.67 299 226.34 299 226 299 Z M196 301 C197 303 197 303 197 303 Z M231 301 C232 304 232 304 232 304 Z M255 302 C255 304.31 255 306.62 255 309 C255.33 309 255.66 309 256 309 C256 306.69 256 304.38 256 302 C255.67 302 255.34 302 255 302 Z M260 302 C260.66 302.66 261.32 303.32 262 304 C262 303.34 262 302.68 262 302 C261.34 302 260.68 302 260 302 Z M197 303 C198 306 198 306 198 306 Z M201 303 C201.66 303.66 202.32 304.32 203 305 C203.66 304.34 204.32 303.68 205 303 C203.68 303 202.36 303 201 303 Z M212 304 C212 304.33 212 304.66 212 305 C213.65 305 215.3 305 217 305 C217 304.67 217 304.34 217 304 C215.35 304 213.7 304 212 304 Z M227 304 C228 308 228 308 228 308 Z M217 305 C218 307 218 307 218 307 Z M198 307 C199 309 199 309 199 309 Z M231 308 C230.34 309.32 229.68 310.64 229 312 C229.99 312.33 230.98 312.66 232 313 C232 311.35 232 309.7 232 308 C231.67 308 231.34 308 231 308 Z M199 309 C200 311 200 311 200 311 Z M269 309 C270 311 270 311 270 311 Z M276 309 C277 311 277 311 277 311 Z M207 310 C207 310.33 207 310.66 207 311 C210.3 311 213.6 311 217 311 C217 310.67 217 310.34 217 310 C213.7 310 210.4 310 207 310 Z M254 310 C255 312 255 312 255 312 Z M200 311 C201 313 201 313 201 313 Z M237 311 C238 313 238 313 238 313 Z M242 311 C243 313 243 313 243 313 Z M260 311 C260.33 312.32 260.66 313.64 261 315 C261.33 313.68 261.66 312.36 262 311 C261.34 311 260.68 311 260 311 Z M235 312 C235 314.64 235 317.28 235 320 C235.33 320 235.66 320 236 320 C236 317.36 236 314.72 236 312 C235.67 312 235.34 312 235 312 Z M262 312 C263 314 263 314 263 314 Z M267 312 C267.33 312.66 267.66 313.32 268 314 C268.33 313.34 268.66 312.68 269 312 C268.34 312 267.68 312 267 312 Z M208 313 C208 313.33 208 313.66 208 314 C213.94 314 219.88 314 226 314 C226 313.67 226 313.34 226 313 C220.06 313 214.12 313 208 313 Z M201 314 C202 316 202 316 202 316 Z M253 315 C254 317 254 317 254 317 Z M263 315 C264 319 264 319 264 319 Z M210 317 C210 317.33 210 317.66 210 318 C213.63 318 217.26 318 221 318 C221 317.67 221 317.34 221 317 C217.37 317 213.74 317 210 317 Z M237 317 C236.67 318.32 236.34 319.64 236 321 C236.66 321 237.32 321 238 321 C237.67 319.68 237.34 318.36 237 317 Z M203 318 C204 320 204 320 204 320 Z M225 318 C229 319 229 319 229 319 Z M244 318 C245 320 245 320 245 320 Z M252 318 C253 322 253 322 253 322 Z M262 320 C263 322 263 322 263 322 Z M217 321 C217 321.33 217 321.66 217 322 C218.65 322 220.3 322 222 322 C222 321.67 222 321.34 222 321 C220.35 321 218.7 321 217 321 Z M258 321 C259 323 259 323 259 323 Z M266 323 C267 325 267 325 267 325 Z M257 324 C258 327 258 327 258 327 Z M228 325 C228 325.33 228 325.66 228 326 C229.65 326 231.3 326 233 326 C233 325.67 233 325.34 233 325 C231.35 325 229.7 325 228 325 Z M251 325 C252 327 252 327 252 327 Z M259 325 C260 327 260 327 260 327 Z M226 329 C226 329.33 226 329.66 226 330 C227.65 330 229.3 330 231 330 C231 329.67 231 329.34 231 329 C229.35 329 227.7 329 226 329 Z M250 329 C251 333 251 333 251 333 Z M216 331 C216.33 331.66 216.66 332.32 217 333 C217.66 332.67 218.32 332.34 219 332 C218.01 331.67 217.02 331.34 216 331 Z M246 331 C247 333 247 333 247 333 Z M232 333 C232.66 333.66 233.32 334.32 234 335 C234 334.34 234 333.68 234 333 C233.34 333 232.68 333 232 333 Z M247 335 C247 337.31 247 339.62 247 342 C247.66 340.68 248.32 339.36 249 338 C248.34 337.01 247.68 336.02 247 335 Z M239 336 C239 339 239 339 239 339 Z M256 340 C257 342 257 342 257 342 Z M241 347 C242 349 242 349 242 349 Z M242 350 C242 352.31 242 354.62 242 357 C242.33 357 242.66 357 243 357 C243 354.69 243 352.38 243 350 C242.67 350 242.34 350 242 350 Z M251 352 C252 354 252 354 252 354 Z M249 357 C250 360 250 360 250 360 Z M241 358 C242 360 242 360 242 360 Z M248 360 C249 362 249 362 249 362 Z M239 363 C240 365 240 365 240 365 Z M246 364 C247 366 247 366 247 366 Z M237 367 C238 369 238 369 238 369 Z M240 379 C241 381 241 381 241 381 Z M237 386 C238 388 238 388 238 388 Z M232 388 C233 390 233 390 233 390 Z M216 404 C217 406 217 406 217 406 Z M212 410 C213 412 213 412 213 412 Z M208 416 C209 418 209 418 209 418 Z M186 448 C187 451 187 451 187 451 Z " fill="#000000" transform="translate(0,0)"/>
</svg>
