<?xml version="1.0" standalone="no"?>
<!DOCTYPE svg PUBLIC "-//W3C//DTD SVG 20010904//EN"
 "http://www.w3.org/TR/2001/REC-SVG-20010904/DTD/svg10.dtd">
<svg version="1.0" xmlns="http://www.w3.org/2000/svg"
 width="500.000000pt" height="500.000000pt" viewBox="0 0 500.000000 500.000000"
 preserveAspectRatio="xMidYMid meet">
<metadata>
Created by potrace 1.16, written by Peter Selinger 2001-2019
</metadata>
<g transform="translate(0.000000,500.000000) scale(0.100000,-0.100000)"
fill="#000000" stroke="none">
<path d="M3105 4791 c-211 -52 -354 -185 -431 -403 -22 -62 -31 -104 -63 -291
-8 -45 -108 -273 -117 -265 -1 2 7 44 18 93 14 66 18 117 16 190 -5 137 -34
197 -156 321 -49 50 -99 93 -111 97 -13 3 -30 -2 -44 -14 -12 -10 -18 -18 -14
-19 4 0 2 -10 -4 -22 -58 -108 -46 -330 25 -483 8 -16 26 -59 41 -94 14 -35
37 -80 49 -100 56 -89 98 -182 92 -205 -24 -96 -24 -230 -1 -318 16 -61 -22
-19 -82 91 -100 181 -152 248 -230 300 -83 55 -220 79 -305 53 -18 -6 -50 -13
-71 -17 -22 -3 -41 -13 -44 -23 -4 -9 12 -53 41 -108 51 -97 121 -176 188
-212 45 -23 155 -28 252 -11 52 9 73 8 96 -1 39 -16 126 -133 184 -248 33 -65
33 -68 -4 -42 -78 55 -289 122 -316 99 -11 -9 -14 -40 -14 -127 l0 -115 -21
27 c-30 39 -53 33 -86 -21 -115 -189 -140 -361 -75 -504 28 -63 64 -101 172
-188 35 -28 69 -83 62 -101 -1 -2 -46 -3 -100 -2 -53 1 -104 -2 -112 -8 -13
-8 -11 -21 14 -97 48 -145 98 -244 142 -284 22 -19 93 -62 158 -94 142 -71
171 -101 171 -179 0 -43 -11 -74 -69 -191 -38 -77 -95 -179 -127 -226 -33 -47
-59 -88 -59 -92 0 -12 -92 -143 -202 -289 -32 -42 -58 -79 -58 -83 0 -4 -9
-18 -20 -32 -24 -30 -26 -63 -5 -63 22 0 103 85 167 176 31 43 86 115 123 159
133 159 161 210 296 540 4 11 27 67 50 125 23 58 47 112 54 120 7 8 22 33 34
55 49 92 59 107 189 285 23 32 57 86 75 121 31 60 34 63 85 75 150 38 291 144
348 259 27 56 29 68 28 170 -1 80 -6 125 -20 164 -30 86 -37 86 -150 -5 -128
-103 -224 -193 -224 -210 0 -8 -4 -14 -9 -14 -5 0 -17 -20 -27 -44 -16 -38
-20 -42 -31 -27 -7 9 -13 23 -13 32 0 20 -146 306 -169 332 -16 17 -50 15 -67
-4 -9 -10 -20 -19 -24 -19 -4 0 -12 31 -19 69 -17 95 2 163 63 219 54 50 62
54 188 98 155 56 208 96 248 189 38 88 36 207 -6 328 -11 31 -11 44 1 78 19
52 20 169 2 193 -12 16 -21 17 -68 10 -30 -4 -76 -8 -104 -9 -202 -5 -304 -95
-399 -352 -15 -39 -34 -77 -42 -83 -12 -11 -13 -5 -8 36 4 27 10 56 15 65 5 9
11 30 13 46 9 47 72 180 122 253 55 83 97 114 277 203 135 66 263 143 285 170
54 66 76 178 71 359 -5 169 -6 171 -134 139z m95 -249 c0 -31 -2 -31 -169 -72
-132 -32 -145 -27 -86 28 27 24 45 32 73 32 20 1 66 9 102 19 36 10 68 19 73
20 4 1 7 -12 7 -27z m-10 -96 c0 -21 -9 -28 -54 -45 -104 -39 -296 -78 -310
-64 -3 3 7 21 22 39 23 28 34 34 67 34 34 0 103 15 230 50 45 12 45 12 45 -14z
m-30 -89 c0 -8 -10 -22 -22 -33 -34 -29 -122 -89 -128 -87 -3 1 -21 -2 -40 -7
-49 -12 -196 -24 -209 -16 -7 5 -2 21 16 46 l26 40 70 0 c75 0 152 18 247 58
34 14 40 14 40 -1z m-336 -789 c8 -71 25 -136 39 -156 12 -15 -22 -67 -44 -67
-40 0 -68 227 -32 267 9 10 19 18 23 18 4 0 11 -28 14 -62z m-83 -127 c6 -30
19 -73 29 -97 l18 -42 -33 -32 -33 -32 -17 59 c-9 32 -20 84 -22 115 -5 48 -2
62 18 95 23 36 24 37 27 13 1 -14 7 -49 13 -79z m-81 79 c0 -6 -7 -25 -16 -42
-12 -23 -18 -75 -24 -189 l-7 -157 -39 -66 -39 -67 -17 52 c-20 58 -45 173
-58 263 -14 97 30 195 93 207 53 10 107 10 107 -1z m-393 -775 c32 -8 90 -18
128 -22 62 -7 70 -11 73 -30 4 -31 -34 -39 -112 -25 -34 6 -78 14 -98 17 -21
3 -39 9 -41 13 -7 13 -17 62 -13 62 2 0 31 -7 63 -15z m83 -205 c60 -22 74
-31 72 -46 -1 -11 -7 -48 -12 -82 -18 -114 11 -205 126 -401 28 -47 28 -55 1
-176 -8 -38 -18 -89 -22 -112 -3 -23 -14 -66 -24 -95 l-18 -53 -7 95 c-4 52
-12 111 -18 130 -41 137 -116 252 -193 294 -22 13 -46 34 -52 47 -16 30 -17
89 -2 126 11 28 41 185 38 200 -1 4 -1 32 0 62 1 46 3 52 19 46 9 -4 51 -20
92 -35z m214 -160 c120 -88 154 -120 162 -152 6 -29 2 -26 -191 102 -67 45
-87 69 -81 96 4 14 10 24 14 22 4 -2 47 -32 96 -68z m-100 -48 c3 -5 45 -33
93 -62 119 -73 183 -126 183 -154 0 -41 -15 -37 -76 22 -7 6 -17 12 -22 12 -5
0 -48 25 -95 56 -80 51 -107 83 -107 125 0 11 17 12 24 1z m126 -200 c47 -28
98 -64 114 -81 24 -25 28 -35 22 -66 l-7 -36 -46 38 c-121 101 -183 167 -183
198 0 7 -5 10 100 -53z"/>
</g>
</svg>
