<!--?xml version="1.0" standalone="no"?-->
              <svg id="sw-js-blob-svg" viewBox="0 0 100 100" xmlns="http://www.w3.org/2000/svg" version="1.1">
                    <defs> 
                        <linearGradient id="sw-gradient" x1="0" x2="1" y1="1" y2="0">
                            <stop id="stop1" stop-color="rgba(248, 117, 55, 1)" offset="0%"></stop>
                            <stop id="stop2" stop-color="rgba(251, 168, 31, 1)" offset="100%"></stop>
                        </linearGradient>
                    </defs>
                <path fill="url(#sw-gradient)" d="M25.2,-28.7C30,-25.9,29.6,-15.5,28.9,-7C28.2,1.6,27.3,8.4,23.3,11.7C19.3,15,12.3,14.9,5.9,18.1C-0.5,21.2,-6.5,27.6,-11,27.3C-15.5,26.9,-18.6,19.7,-23.3,12.8C-28,6,-34.2,-0.6,-32,-4.3C-29.7,-8,-18.9,-8.8,-12.2,-11.3C-5.4,-13.7,-2.7,-17.8,3.7,-22.2C10.1,-26.6,20.3,-31.5,25.2,-28.7Z" width="100%" height="100%" transform="translate(50 50)" stroke-width="0" style="transition: 0.3s;"></path>
              </svg>